<svg xmlns="http://www.w3.org/2000/svg" viewBox="0 0 355.21 74.48"><defs><style>.cls-1{fill:#fff;}.cls-2{fill:#1e51a4;}.cls-3{fill:#ffc81a;}.cls-4{fill:#d1a74f;}.cls-5{fill:#939292;}</style></defs><title>logo_white</title><g id="Layer_2" data-name="Layer 2"><g id="B15V7H0sM"><g id="S1e9N7BCif"><g id="ByW9VQBRjM"><polygon id="Hyf5NXBRsM" class="cls-1" points="339.91 24.12 326.56 71.93 319.05 71.93 336.16 11.73 339.91 24.12"/><rect id="HJQcVQB0sz" class="cls-2" x="0.01" y="0.17" width="49.89" height="33.26"/><path id="BJNcEXrCoG" class="cls-1" d="M32.52,7.43,32,9.1H30.24l1.43,1-.56,1.64,1.42-1,1.39,1-.54-1.67,1.41-1H33Z"/><path id="Skr9EmrAsf" class="cls-1" d="M27.54,6.69,27,8.36H25.27l1.42,1L26.14,11l1.42-1L29,11l-.6-1.67,1.42-1H28.06Z"/><path id="Hy8cVQrRoG" class="cls-1" d="M12.3,9l.54,1.67h1.73l-1.42,1,.55,1.64-1.42-1-1.39,1,.54-1.67-1.43-1h1.76Z"/><path id="HJDqE7B0iM" class="cls-1" d="M17.39,7.43l.54,1.67h1.74l-1.43,1,.56,1.64-1.42-1-1.39,1,.54-1.67-1.41-1h1.75Z"/><path id="Bku5E7S0jM" class="cls-1" d="M22.37,6.69l.54,1.67h1.73l-1.42,1L23.77,11l-1.42-1L21,11l.55-1.67-1.42-1h1.76Z"/><path id="BkYqE7rCjG" class="cls-1" d="M37.61,9l-.54,1.67H35.34l1.42,1-.55,1.64,1.42-1,1.39,1-.54-1.67,1.41-1H38.13Z"/><path id="H1954QHRif" class="cls-3" d="M29.74,25.08,29.55,25A5.8,5.8,0,0,0,30,17.92h0a5.29,5.29,0,0,0-1-1.11.19.19,0,0,0-.26,0,.21.21,0,0,0,0,.26,4.57,4.57,0,0,1,.83.87,8.94,8.94,0,0,1-1.37.38,6.22,6.22,0,0,0-.52-1.18A4.19,4.19,0,0,0,26.76,16a5.7,5.7,0,0,1,1.52.71.21.21,0,0,0,.26,0,.2.2,0,0,0-.05-.26,5.69,5.69,0,0,0-8.91,4.82A5.77,5.77,0,0,0,21,25l-.18.07a1,1,0,0,0-.66,1v.65a.19.19,0,0,0,.19.18h3.46a.18.18,0,0,0,0-.36h-.55v-.64A.88.88,0,0,1,23.8,25h0l.89-.35h0l.47.46a.29.29,0,0,0,.13.05h0a.16.16,0,0,0,.13-.06l.45-.46.89.35h0a.88.88,0,0,1,.54.87v.64H24.36a.18.18,0,0,0,0,.36h5.85a.19.19,0,0,0,.19-.18v-.65A1,1,0,0,0,29.74,25.08Zm-.55-.22L29,24.79v-.1a1.06,1.06,0,0,0,.43-.53.51.51,0,0,0,.47-.55.5.5,0,0,0-.19-.36v-.32a1.23,1.23,0,0,0-1.07-1.22v-.37h2A5.33,5.33,0,0,1,29.19,24.86Zm-.65-.41h-.17a.58.58,0,0,1-.58-.58v-.48h0a2.11,2.11,0,0,0,1-.38.88.88,0,0,0,.35.34v.52a.58.58,0,0,1-.58.58Zm.11.36v.1l-.2.21-.19-.18v-.13Zm-1-1.77h-.06v-.12a.84.84,0,0,1,.84-.86h.1a.86.86,0,0,1,.87.85h0V23h0c-.25-.06-.34-.39-.34-.4a.17.17,0,0,0-.19-.16.21.21,0,0,0-.13.1,1.52,1.52,0,0,1-1.13.46Zm1.87.73v-.24a.14.14,0,0,1,.07.12.15.15,0,0,1-.11.12Zm.32-5.54A5.25,5.25,0,0,1,30.66,21h-2a9.1,9.1,0,0,0-.33-2.33,9.25,9.25,0,0,0,1.47-.45ZM28.3,21H26.44a1.46,1.46,0,0,0-1-.49V18.93A18.29,18.29,0,0,0,28,18.72,8.78,8.78,0,0,1,28.3,21Zm-1.6,1.9a.26.26,0,0,1-.18.22v-.45a.25.25,0,0,1,.18.2ZM25.45,15.8a2.72,2.72,0,0,1,1.93,1.54,5.07,5.07,0,0,1,.48,1.06,16.2,16.2,0,0,1-2.41.19V15.8Zm-.12,5.08A1.13,1.13,0,0,1,26.46,22h0v.23h-.08c-.34-.08-.45-.53-.45-.53a.17.17,0,0,0-.14-.14.18.18,0,0,0-.19.07,1.91,1.91,0,0,1-1.38.6H24.1V22a1.13,1.13,0,0,1,1.13-1.12ZM22.24,21a7.82,7.82,0,0,1,.33-2.26,17.72,17.72,0,0,0,2.52.21v1.56a1.5,1.5,0,0,0-1,.49ZM24,22.65v.45a.23.23,0,0,1,0-.45Zm1.05-6.88v2.79a16.2,16.2,0,0,1-2.41-.19,5.6,5.6,0,0,1,.47-1.06,2.71,2.71,0,0,1,2-1.54Zm-1.31.2a4,4,0,0,0-.94,1.15,7,7,0,0,0-.53,1.18A9.28,9.28,0,0,1,21,17.92,5.39,5.39,0,0,1,23.78,16Zm-3,2.26a9.47,9.47,0,0,0,1.47.42A8.91,8.91,0,0,0,21.87,21h-2A5.36,5.36,0,0,1,20.74,18.23Zm1.17,6.58h.39v.1l-.2.21-.19-.18Zm.28-.36H22a.58.58,0,0,1-.58-.58v-.48a1.92,1.92,0,0,0,1-.38.88.88,0,0,0,.35.34v.52A.58.58,0,0,1,22.19,24.45Zm.47-1.81a.18.18,0,0,0-.14-.14.2.2,0,0,0-.19.08,1.54,1.54,0,0,1-1.07.46H21.2v-.12a.86.86,0,0,1,.86-.86h.09a.86.86,0,0,1,.86.86h0V23h0C22.74,23,22.66,22.65,22.66,22.64Zm-2.78-1.3h2v.38a1.2,1.2,0,0,0-1.05,1.21v.32a.51.51,0,0,0-.2.4.52.52,0,0,0,.48.51,1.06,1.06,0,0,0,.43.53v.1l-.2.08A5.41,5.41,0,0,1,19.88,21.34Zm1.2,2.18v.26a.17.17,0,0,1,0-.23Zm1.79,2.4v.64H20.51v-.47a.65.65,0,0,1,.41-.66h0l.68-.27.37.36a.21.21,0,0,0,.13.05h0a.26.26,0,0,0,.13-.06l.34-.35.43.17A1.31,1.31,0,0,0,22.87,25.92Zm1.76-1.59-1,.38a1,1,0,0,0-.44.3l-.55-.22v-.1a1,1,0,0,0,.42-.53.5.5,0,0,0,.47-.51.5.5,0,0,0-.19-.4v-.32a1.22,1.22,0,0,0-1.12-1.22v-.37h1.64a1.49,1.49,0,0,0-.14.63v.43a.59.59,0,0,0,.35,1.07h0a1.17,1.17,0,0,0,.54.68v.18Zm-1.49-.56v-.24a.13.13,0,0,1,.06.12A.16.16,0,0,1,23.14,23.77Zm2.43.69h0l-.29.31L25,24.5v-.23h.58Zm-.18-.53h-.21a.78.78,0,0,1-.78-.78h0v-.64a2.42,2.42,0,0,0,1.29-.5,1,1,0,0,0,.47.46v.68A.79.79,0,0,1,25.39,23.93ZM27.32,25a1,1,0,0,0-.44-.3l-.94-.38v-.18a1.21,1.21,0,0,0,.54-.68.59.59,0,0,0,.34-1.07V22a1.49,1.49,0,0,0-.14-.63H28.3v.37A1.22,1.22,0,0,0,27.19,23v.32a.5.5,0,0,0-.19.4.51.51,0,0,0,.48.51,1,1,0,0,0,.42.53v.1Zm.1-1.49v.26a.17.17,0,0,1,0-.23Zm2.61,3H27.67v-.64a1.13,1.13,0,0,0-.14-.6l.43-.17.36.36a.29.29,0,0,0,.13.05h0a.16.16,0,0,0,.13-.06l.35-.35.68.27h0A.65.65,0,0,1,30,26v.47Z"/><path id="r1o54mBAjG" class="cls-2" d="M119.8,5a16.36,16.36,0,0,1,5,12,16.38,16.38,0,0,1-5,12,17.57,17.57,0,0,1-24.45,0,16.4,16.4,0,0,1-5-12,16.36,16.36,0,0,1,5-12A17.56,17.56,0,0,1,119.8,5Zm-5,20a11.51,11.51,0,0,0,2.8-8,11.52,11.52,0,0,0-2.84-7.91,9.63,9.63,0,0,0-13.6-.75,10.46,10.46,0,0,0-.74.75A11.42,11.42,0,0,0,97.55,17,11.48,11.48,0,0,0,100.42,25a9.26,9.26,0,0,0,7.18,3.19,9.16,9.16,0,0,0,7.16-3.23Z"/><path id="HJn9VQH0oG" class="cls-2" d="M147.41,8.69a10.61,10.61,0,0,0-6.81-2.95,5.09,5.09,0,0,0-3,.87A2.78,2.78,0,0,0,136.33,9a2.62,2.62,0,0,0,.16,1,2.38,2.38,0,0,0,.54.83c.22.21.45.42.69.61a6.43,6.43,0,0,0,1,.54c.45.2.79.34,1,.42l1.17.4,1.08.37a34.21,34.21,0,0,1,3.64,1.41,21.53,21.53,0,0,1,3.12,1.88,7.58,7.58,0,0,1,2.61,3.08,10,10,0,0,1,.87,4.29,8.88,8.88,0,0,1-2,5.78,11.08,11.08,0,0,1-4.7,3.4,16.68,16.68,0,0,1-5.77,1,17.34,17.34,0,0,1-12.58-5.49l4.46-4.37a21.44,21.44,0,0,0,4,3.15,8.54,8.54,0,0,0,4.15,1,6.36,6.36,0,0,0,3.69-1.06A3.55,3.55,0,0,0,145,24.09a3.47,3.47,0,0,0-.45-1.76A4.12,4.12,0,0,0,143,20.92a16.78,16.78,0,0,0-1.87-1c-.54-.24-1.37-.58-2.49-1s-2-.76-2.63-1a25.2,25.2,0,0,1-2.35-1.26,8.22,8.22,0,0,1-2.16-1.77,9.06,9.06,0,0,1-1.92-5.7,8,8,0,0,1,3.17-6.81A12.19,12.19,0,0,1,140.37,0a17.62,17.62,0,0,1,10.89,3.9Z"/><path id="SyacNQSCif" class="cls-2" d="M185.29,5a16.36,16.36,0,0,1,5,12,16.38,16.38,0,0,1-5,12,17.57,17.57,0,0,1-24.45,0,16.4,16.4,0,0,1-5-12,16.36,16.36,0,0,1,5-12,17.57,17.57,0,0,1,24.45,0Zm-5,20a11.51,11.51,0,0,0,2.8-8,11.52,11.52,0,0,0-2.84-7.91,9.63,9.63,0,0,0-13.6-.75,10.46,10.46,0,0,0-.74.75A11.44,11.44,0,0,0,163,17,11.48,11.48,0,0,0,165.87,25a9.26,9.26,0,0,0,7.18,3.19,9.16,9.16,0,0,0,7.2-3.23Z"/><polygon id="HyA5E7S0oM" class="cls-4" points="203.09 10.02 200.74 0.57 193.23 0.57 199.34 22.41 203.09 10.02"/><polygon id="r11gc47SCif" class="cls-4" points="229.66 0.57 224.12 21.6 224.03 21.6 218.39 0.57 212.1 0.57 202.7 33.43 208.86 33.43 215.01 11.84 215.1 11.84 221.07 33.43 227.73 33.43 237.17 0.57 229.66 0.57"/><polygon id="rkegqEmBAof" class="cls-4" points="249.29 10.02 246.93 0.57 239.42 0.57 245.53 22.41 249.29 10.02"/><polygon id="HkZxqV7SRif" class="cls-4" points="275.85 0.57 270.31 21.6 270.22 21.6 264.59 0.57 258.29 0.57 248.9 33.43 255.05 33.43 261.21 11.84 261.3 11.84 267.26 33.43 273.93 33.43 283.36 0.57 275.85 0.57"/><polygon id="HyMl5EXHAoM" class="cls-4" points="295.48 10.02 293.13 0.57 285.62 0.57 291.73 22.41 295.48 10.02"/><polygon id="rk7xqVmSRof" class="cls-4" points="322.05 0.57 316.51 21.6 316.41 21.6 310.78 0.57 304.49 0.57 295.09 33.43 301.25 33.43 307.4 11.84 307.49 11.84 313.45 33.43 320.12 33.43 329.56 0.57 322.05 0.57"/><polygon id="HyVx5VQSAiG" class="cls-1" points="70.04 3.51 70.04 0.57 63.33 0.57 63.33 11.7 70.04 3.51"/><polygon id="S1Sxq47BCoG" class="cls-2" points="78.12 13.86 89.24 0.57 81.12 0.57 81.12 0.57 81.13 0.58 63.33 22.28 63.33 33.43 70.04 33.43 70.04 23.39 73.56 19.21 81.68 33.43 89.52 33.43 78.12 13.86"/><path id="SkLx9VQSAoz" class="cls-1" d="M6,48.56l1.6,6h0l1.66-6H10.6L8.24,56.84H7L5.35,50.75h0L3.59,56.84H2.35L.07,48.56H1.48l1.58,6h0l1.67-6Z"/><path id="BJveqVQr0jG" class="cls-1" d="M12.07,54.16a2,2,0,0,0,.55,1.28,1.7,1.7,0,0,0,1.26.51A1.86,1.86,0,0,0,15.62,55l.86.55a3,3,0,0,1-1.11,1.08,3.31,3.31,0,0,1-1.55.34,2.81,2.81,0,0,1-2.17-.88,3.43,3.43,0,0,1,0-4.48,2.75,2.75,0,0,1,2.12-.91,2.69,2.69,0,0,1,2.79,2.6v.18a3.88,3.88,0,0,1-.06.67Zm3.27-.94a1.56,1.56,0,0,0-.46-1.06,1.32,1.32,0,0,0-1-.43,1.5,1.5,0,0,0-1.1.41,2.06,2.06,0,0,0-.61,1.08Z"/><path id="rkuxqE7SRoG" class="cls-1" d="M18,48h1.21v3.65A1.93,1.93,0,0,1,20,51a2.42,2.42,0,0,1,1.06-.24,2.72,2.72,0,0,1,2.09.91,3.36,3.36,0,0,1,0,4.43A2.77,2.77,0,0,1,21.1,57a2.59,2.59,0,0,1-1.86-.81v.67H18Zm1.21,4.91V55a2.08,2.08,0,0,0,1.66.86,1.75,1.75,0,0,0,1.42-.61,2.21,2.21,0,0,0,.5-1.43,2.07,2.07,0,0,0-.52-1.43,1.72,1.72,0,0,0-1.37-.6,2,2,0,0,0-1,.28,1.67,1.67,0,0,0-.66.8Z"/><path id="SJFx5EXSCsf" class="cls-1" d="M29.2,51.4l-.71.77a1.67,1.67,0,0,0-1.18-.46.82.82,0,0,0-.6.19.64.64,0,0,0-.22.52.51.51,0,0,0,.18.37A1.46,1.46,0,0,0,27,53l.56.24.49.21a2.94,2.94,0,0,1,.46.25,2.24,2.24,0,0,1,.42.34,1.73,1.73,0,0,1,.27.43,1.56,1.56,0,0,1,.11.57,1.67,1.67,0,0,1-.63,1.42,2.59,2.59,0,0,1-1.57.47A2.65,2.65,0,0,1,25,56l.8-.7a1.87,1.87,0,0,0,1.34.65,1.28,1.28,0,0,0,.71-.21.74.74,0,0,0,.28-.61.53.53,0,0,0-.18-.39,1.25,1.25,0,0,0-.37-.28L27,54.25c-.27-.11-.48-.2-.61-.27a4.33,4.33,0,0,1-.51-.31,1.27,1.27,0,0,1-.42-.5,1.53,1.53,0,0,1-.13-.66,1.57,1.57,0,0,1,.58-1.33,2.13,2.13,0,0,1,1.41-.47A2.68,2.68,0,0,1,29.2,51.4Z"/><path id="H15e54QSRif" class="cls-1" d="M32.12,49.76H30.9V48.5h1.22Zm0,7.08H30.9v-6h1.22Z"/><path id="SJsgc4mH0oM" class="cls-1" d="M37,51.91H35.31V55a1.11,1.11,0,0,0,.2.68.69.69,0,0,0,.56.22,1.57,1.57,0,0,0,.67-.16l.36,1a2.49,2.49,0,0,1-1.2.28,1.61,1.61,0,0,1-1.65-1,3.63,3.63,0,0,1-.17-1.18V51.91H33.3V50.85h.78l.06-1.4H35.3v1.4H37Z"/><path id="rJng9EmSAjG" class="cls-1" d="M39,54.16a2.06,2.06,0,0,0,.55,1.28,1.7,1.7,0,0,0,1.26.51,1.85,1.85,0,0,0,1.7-.94l.86.55a3.16,3.16,0,0,1-1.1,1.08,3.31,3.31,0,0,1-1.55.34,2.8,2.8,0,0,1-2.18-.88,3.42,3.42,0,0,1,.05-4.48,2.77,2.77,0,0,1,2.13-.91,2.67,2.67,0,0,1,2,.79,2.75,2.75,0,0,1,.79,2,3.88,3.88,0,0,1-.06.67Zm3.27-.94a1.56,1.56,0,0,0-.46-1.06,1.32,1.32,0,0,0-1-.43,1.5,1.5,0,0,0-1.1.41A2.25,2.25,0,0,0,39,53.22Z"/><path id="ry6ecEQS0jG" class="cls-1" d="M48.63,51.4l-.71.77a1.67,1.67,0,0,0-1.18-.46.81.81,0,0,0-.59.19.64.64,0,0,0-.23.52.47.47,0,0,0,.19.37,1.38,1.38,0,0,0,.36.26l.55.24.5.21a2.46,2.46,0,0,1,.45.25,2.24,2.24,0,0,1,.42.34,1.21,1.21,0,0,1,.27.43,1.39,1.39,0,0,1,.12.57,1.64,1.64,0,0,1-.64,1.42,2.59,2.59,0,0,1-1.57.47,2.69,2.69,0,0,1-2.15-1l.81-.7a1.89,1.89,0,0,0,1.33.65,1.21,1.21,0,0,0,.71-.21.75.75,0,0,0,.29-.61.48.48,0,0,0-.19-.39,1,1,0,0,0-.37-.28l-.58-.24L45.81,54a3.21,3.21,0,0,1-.5-.31,1.38,1.38,0,0,1-.43-.5,1.53,1.53,0,0,1-.13-.66,1.57,1.57,0,0,1,.58-1.33,2.13,2.13,0,0,1,1.41-.47A2.63,2.63,0,0,1,48.63,51.4Z"/><path id="HJ0e5NQH0iG" class="cls-1" d="M62.38,56.84H61.16v-3a3.36,3.36,0,0,0-.26-1.57,1,1,0,0,0-1-.46,1.52,1.52,0,0,0-.82.25,2.39,2.39,0,0,0-.72.66,8.26,8.26,0,0,1,.06,1v3.11H57.23v-3a3,3,0,0,0-.3-1.61.91.91,0,0,0-.88-.42,1.43,1.43,0,0,0-.82.29,2.56,2.56,0,0,0-.71.68v4.06H53.3v-6h1.16v.87a2.43,2.43,0,0,1,.85-.74,2,2,0,0,1,1-.27,1.83,1.83,0,0,1,1.64.82,1.35,1.35,0,0,1,.15.26,2.35,2.35,0,0,1,2.06-1.08,1.93,1.93,0,0,1,1.63.72,3.78,3.78,0,0,1,.56,2.3Z"/><path id="B1k-cNQBCjf" class="cls-1" d="M68.92,56.84H67.8v-.6A2.21,2.21,0,0,1,66,57a2.5,2.5,0,0,1-1.52-.46,1.62,1.62,0,0,1-.61-1.38,1.89,1.89,0,0,1,.22-.94,1.61,1.61,0,0,1,.62-.62,2.86,2.86,0,0,1,.84-.32,4.19,4.19,0,0,1,1-.1,5.12,5.12,0,0,1,1.17.13v-.21a1.2,1.2,0,0,0-1-1.38,1,1,0,0,0-.34,0,3.89,3.89,0,0,0-1.88.53l-.34-1a5.44,5.44,0,0,1,2.41-.57c1.59,0,2.39.83,2.39,2.5ZM67.7,55.35V54.14a4.78,4.78,0,0,0-1-.1,3,3,0,0,0-.73.07,1.3,1.3,0,0,0-.6.32.9.9,0,0,0-.06,1.28l.06.07a1.34,1.34,0,0,0,.8.23A2.42,2.42,0,0,0,67.7,55.35Z"/><path id="BJxZqVmHAoz" class="cls-1" d="M76.32,48v8.87H75.16v-.79a2.06,2.06,0,0,1-.83.69,2.61,2.61,0,0,1-1.07.24,2.78,2.78,0,0,1-2.1-.91,3.33,3.33,0,0,1,0-4.42,2.67,2.67,0,0,1,2.12-.94,2.43,2.43,0,0,1,1.86.78V48ZM75.1,52.68a2.08,2.08,0,0,0-1.66-.87,1.71,1.71,0,0,0-1.41.62,2.23,2.23,0,0,0,0,2.86,1.74,1.74,0,0,0,1.37.59,2.05,2.05,0,0,0,1-.27,1.68,1.68,0,0,0,.7-.79Z"/><path id="HJbZqEQrRof" class="cls-1" d="M79,54.16a2,2,0,0,0,.55,1.28,1.7,1.7,0,0,0,1.26.51A1.85,1.85,0,0,0,82.52,55l.85.55a2.92,2.92,0,0,1-1.1,1.08,3.31,3.31,0,0,1-1.55.34,2.83,2.83,0,0,1-2.18-.88,3.24,3.24,0,0,1-.8-2.24,3.05,3.05,0,0,1,.86-2.24,2.75,2.75,0,0,1,2.12-.91A2.69,2.69,0,0,1,83.5,53.3v.19a3.88,3.88,0,0,1-.06.67Zm3.27-.94a1.61,1.61,0,0,0-.46-1.06,1.32,1.32,0,0,0-1-.43,1.52,1.52,0,0,0-1.11.41,2.15,2.15,0,0,0-.6,1.08Z"/><path id="ryMZ5NQB0sz" class="cls-1" d="M89.1,49.76H87.88V48.5H89.1Zm0,7.08H87.88v-6H89.1Z"/><path id="BJXbqEXBCsz" class="cls-1" d="M91,50.85h1.16v.95a2.29,2.29,0,0,1,1.93-1.07,2,2,0,0,1,1.71.76,3.89,3.89,0,0,1,.53,2.26v3.11H95.15v-3a3.14,3.14,0,0,0-.28-1.57,1,1,0,0,0-1-.46,1.59,1.59,0,0,0-.92.29,2.33,2.33,0,0,0-.75.78v4H91Z"/><path id="SkEZ547SCjz" class="cls-1" d="M107.42,48.56l-2.77,3.29,2.92,5h-1.48l-2.3-4-1.23,1.46v2.51h-1.27V48.56h1.27v4l3.31-4Z"/><path id="ryBW5N7SCoM" class="cls-1" d="M111,50.71a2.88,2.88,0,0,1,2.19.91,3.23,3.23,0,0,1,0,4.46,3.15,3.15,0,0,1-4.39,0,3.27,3.27,0,0,1,0-4.46A2.86,2.86,0,0,1,111,50.71Zm1.31,4.58a2.08,2.08,0,0,0,.52-1.44,2.12,2.12,0,0,0-.52-1.45,1.74,1.74,0,0,0-2.47-.15l-.15.15a2.23,2.23,0,0,0,0,2.89,1.75,1.75,0,0,0,2.47.15Z"/><path id="HyL-qNQrRiG" class="cls-1" d="M119.21,51.4l-.71.77a1.67,1.67,0,0,0-1.18-.46.81.81,0,0,0-.59.19.64.64,0,0,0-.23.52.47.47,0,0,0,.19.37,1.38,1.38,0,0,0,.36.26l.55.24.49.21a2.94,2.94,0,0,1,.46.25,2.24,2.24,0,0,1,.42.34,1.21,1.21,0,0,1,.27.43,1.38,1.38,0,0,1,.11.57,1.67,1.67,0,0,1-.63,1.42,2.59,2.59,0,0,1-1.57.47A2.69,2.69,0,0,1,115,56l.8-.7a1.91,1.91,0,0,0,1.34.65,1.21,1.21,0,0,0,.71-.21.75.75,0,0,0,.29-.61.56.56,0,0,0-.19-.39,1,1,0,0,0-.37-.28l-.58-.24-.61-.27a3.21,3.21,0,0,1-.5-.31,1.38,1.38,0,0,1-.43-.5,1.53,1.53,0,0,1-.13-.66,1.57,1.57,0,0,1,.58-1.33,2.13,2.13,0,0,1,1.41-.47A2.64,2.64,0,0,1,119.21,51.4Z"/><path id="SyPZq47HAoG" class="cls-1" d="M123.52,50.71a2.86,2.86,0,0,1,2.2.91,3.27,3.27,0,0,1,0,4.46,3.14,3.14,0,0,1-4.4,0,3.27,3.27,0,0,1,0-4.46A2.86,2.86,0,0,1,123.52,50.71Zm1.32,4.58a2.13,2.13,0,0,0,.52-1.44,2.19,2.19,0,0,0-.52-1.45,1.67,1.67,0,0,0-1.32-.59,1.63,1.63,0,0,0-1.31.59,2.12,2.12,0,0,0-.52,1.45,2.08,2.08,0,0,0,.52,1.44,1.68,1.68,0,0,0,1.31.59A1.7,1.7,0,0,0,124.84,55.29Z"/><path id="BJdZ5VmHAoG" class="cls-1" d="M131.52,50.85h1.32l-2.37,6h-1l-2.27-6h1.34L130,55.29h0Z"/><path id="SJtZq4XSCiM" class="cls-1" d="M136.45,50.71a2.91,2.91,0,0,1,2.19.91,3.27,3.27,0,0,1,0,4.46,3.14,3.14,0,0,1-4.4,0,3.29,3.29,0,0,1,0-4.46A2.89,2.89,0,0,1,136.45,50.71Zm1.31,4.58a2.08,2.08,0,0,0,.52-1.44,2.12,2.12,0,0,0-.52-1.45,1.76,1.76,0,0,0-2.63,0,2.19,2.19,0,0,0-.52,1.45,2.13,2.13,0,0,0,.52,1.44,1.7,1.7,0,0,0,1.32.59A1.68,1.68,0,0,0,137.76,55.29Z"/><polygon id="Skc-94XBRof" class="cls-1" points="345.68 0.7 351.83 22.3 351.92 22.3 351.93 22.26 355.21 33.56 348.92 33.56 339.52 0.7 345.68 0.7"/><path id="ryiZ5EQBAsf" class="cls-5" d="M0,71.77V63.48H2.27a5.5,5.5,0,0,1,1.61.23,5.19,5.19,0,0,1,1.42.69,3.25,3.25,0,0,1,1,1.29,4.41,4.41,0,0,1,.4,1.9,4.6,4.6,0,0,1-.39,1.93,3.41,3.41,0,0,1-1,1.31,4.92,4.92,0,0,1-1.46.7,5.86,5.86,0,0,1-1.67.24Zm5.4-4.08a3,3,0,0,0-.87-2.3,3.5,3.5,0,0,0-2.46-.8h-.8v6.06h.34A5.06,5.06,0,0,0,4.41,70,2.58,2.58,0,0,0,5.4,67.69Z"/><path id="HyhWcN7HAjf" class="cls-5" d="M9.59,64.69H8.37V63.42H9.59Zm0,7.08H8.37v-6H9.59Z"/><path id="SJ6W54QHAif" class="cls-5" d="M15.83,70.85a2.12,2.12,0,0,1-.83.68,2.57,2.57,0,0,1-1.06.24,2.81,2.81,0,0,1-2.1-.89,3.24,3.24,0,0,1,0-4.34A2.77,2.77,0,0,1,14,65.63a2.69,2.69,0,0,1,1,.22,2.57,2.57,0,0,1,.86.6v-.67H17v5.67A3.36,3.36,0,0,1,16.71,73,2.79,2.79,0,0,1,14,74.42a4.6,4.6,0,0,1-2.69-.81l.47-1a4.17,4.17,0,0,0,1,.53,3.71,3.71,0,0,0,1.14.21,2,2,0,0,0,1.32-.42,1.6,1.6,0,0,0,.52-1.28Zm0-1.25v-2a2,2,0,0,0-1.66-.86,1.71,1.71,0,0,0-1.42.58,2.07,2.07,0,0,0-.5,1.39,2,2,0,0,0,.52,1.39,1.8,1.8,0,0,0,1.37.56,2.05,2.05,0,0,0,1-.27A1.71,1.71,0,0,0,15.83,69.6Z"/><path id="rkCWqVmrAjz" class="cls-5" d="M20.1,64.69H18.88V63.42H20.1Zm0,7.08H18.88v-6H20.1Z"/><path id="By1Mq4XS0iz" class="cls-5" d="M24.93,66.83H23.28v3.08a1.25,1.25,0,0,0,.2.67.7.7,0,0,0,.56.23,1.75,1.75,0,0,0,.68-.17l.35,1a2.48,2.48,0,0,1-1.19.28,1.61,1.61,0,0,1-1.65-1,3.48,3.48,0,0,1-.18-1.19v-2.9h-.78v-1h.78l.06-1.41h1.16v1.41h1.65Z"/><path id="BJgM54XSRjG" class="cls-5" d="M30.89,71.77H29.77v-.61a2.24,2.24,0,0,1-1.77.75,2.48,2.48,0,0,1-1.51-.47,1.64,1.64,0,0,1-.62-1.38,1.89,1.89,0,0,1,.22-.94,1.61,1.61,0,0,1,.62-.62,2.84,2.84,0,0,1,.84-.31,3.74,3.74,0,0,1,1-.11,5.82,5.82,0,0,1,1.17.13V68a1.21,1.21,0,0,0-1-1.39,1.09,1.09,0,0,0-.36,0,3.89,3.89,0,0,0-1.88.53l-.34-1a5.44,5.44,0,0,1,2.41-.57c1.6,0,2.39.84,2.39,2.5Zm-1.22-1.5v-1.2a4.79,4.79,0,0,0-1-.11,2.63,2.63,0,0,0-.74.08,1.3,1.3,0,0,0-.6.32.81.81,0,0,0-.27.64.86.86,0,0,0,.31.71,1.36,1.36,0,0,0,.8.23A2.41,2.41,0,0,0,29.67,70.27Z"/><path id="Bk-M9V7HAoz" class="cls-5" d="M34,62.89v8.88H32.73V62.89Z"/><path id="Byzz9NQSAsz" class="cls-5" d="M44,71.77l-.61-1.71H40l-.62,1.71H38l3.25-8.29h1.08l3.16,8.29Zm-2.27-6.36L40.44,69H43l-1.25-3.54Z"/><path id="HkXzqN7SAsM" class="cls-5" d="M50.86,70.85a2.09,2.09,0,0,1-.82.68,2.74,2.74,0,0,1-1.06.24,2.77,2.77,0,0,1-2.1-.89,3.22,3.22,0,0,1,0-4.34A2.72,2.72,0,0,1,49,65.63a2.67,2.67,0,0,1,1.9.82v-.67h1.16v5.67A3.38,3.38,0,0,1,51.75,73a2.78,2.78,0,0,1-2.69,1.4,4.6,4.6,0,0,1-2.69-.81l.48-1a4.17,4.17,0,0,0,1,.53,3.59,3.59,0,0,0,1.13.21,2,2,0,0,0,1.32-.42,1.53,1.53,0,0,0,.52-1.28Zm0-1.25v-2a2,2,0,0,0-1.66-.86,1.74,1.74,0,0,0-1.42.58,2.06,2.06,0,0,0-.49,1.39,2,2,0,0,0,.52,1.39,1.76,1.76,0,0,0,1.37.56,2.05,2.05,0,0,0,1-.27A1.63,1.63,0,0,0,50.86,69.6Z"/><path id="rkEGcNXrRsf" class="cls-5" d="M54.67,69.08a2,2,0,0,0,.55,1.28,1.7,1.7,0,0,0,1.26.52,1.85,1.85,0,0,0,1.74-1l.85.56A2.88,2.88,0,0,1,58,71.56a3.32,3.32,0,0,1-1.55.35,2.81,2.81,0,0,1-2.2-.9,3.22,3.22,0,0,1-.81-2.25,3.13,3.13,0,0,1,.86-2.24,2.77,2.77,0,0,1,2.12-.91,2.69,2.69,0,0,1,2.78,2.61v.18a4.89,4.89,0,0,1-.05.66Zm3.27-.94a1.61,1.61,0,0,0-.46-1.06,1.35,1.35,0,0,0-1-.43,1.45,1.45,0,0,0-1.1.42,2,2,0,0,0-.61,1.07Z"/><path id="HyHzcVXrRsz" class="cls-5" d="M60.62,65.78h1.16v.94a2.25,2.25,0,0,1,.85-.8,2.2,2.2,0,0,1,1.09-.29,2,2,0,0,1,1.71.76A3.88,3.88,0,0,1,66,68.65v3.12H64.78v-3a3.19,3.19,0,0,0-.28-1.56,1,1,0,0,0-1-.46,1.59,1.59,0,0,0-.92.29,2.4,2.4,0,0,0-.75.77v4H60.62Z"/><path id="Sy8fqVmrCoz" class="cls-5" d="M71.72,70.38l.61.9a2.83,2.83,0,0,1-1.9.63,3.05,3.05,0,0,1-2.19-.9,3.29,3.29,0,0,1,0-4.49,3.1,3.1,0,0,1,4-.35l-.59,1a2,2,0,0,0-1.21-.42,1.67,1.67,0,0,0-1.32.59,2.19,2.19,0,0,0,0,2.9,1.79,1.79,0,0,0,1.32.58A2,2,0,0,0,71.72,70.38Z"/><path id="SJvM54mB0oG" class="cls-5" d="M72.85,65.78H74.2l1.47,4.3h0l1.52-4.3h1.32l-3.37,8.7L74.08,74l1-2.51Z"/></g></g></g></g></svg>