<?xml version="1.0" encoding="utf-8"?>
<!-- Generator: Adobe Illustrator 23.0.2, SVG Export Plug-In . SVG Version: 6.00 Build 0)  -->
<svg version="1.1" id="Capa_1" xmlns="http://www.w3.org/2000/svg" xmlns:xlink="http://www.w3.org/1999/xlink" x="0px" y="0px"
	 viewBox="0 0 512 512" style="enable-background:new 0 0 512 512;" xml:space="preserve">
<style type="text/css">
	.st0{fill:#FFFFFF;}
</style>
<g>
	<g>
		<path class="st0" d="M482,36H30C13.5,36,0,49.5,0,66v280c0,16.5,13.5,30,30,30h168.8l-17.6,88c-0.6,2.9,0.2,6,2.1,8.3
			s4.7,3.7,7.7,3.7h130c3,0,5.8-1.3,7.7-3.7s2.7-5.4,2.1-8.3l-17.6-88H482c16.5,0,30-13.5,30-30V66C512,49.5,498.5,36,482,36z
			 M203.2,456l16-80h73.6l16,80H203.2z M492,346c0,5.5-4.5,10-10,10H30c-5.5,0-10-4.5-10-10v-10h472V346z M492,316H20V66
			c0-5.5,4.5-10,10-10h452c5.5,0,10,4.5,10,10V316z"/>
	</g>
</g>
<g>
	<g>
		<path class="st0" d="M467,71h-41c-5.5,0-10,4.5-10,10s4.5,10,10,10h41c5.5,0,10-4.5,10-10S472.5,71,467,71z"/>
	</g>
</g>
<g>
	<g>
		<path class="st0" d="M397.2,71H397c-5.5,0-10,4.5-10,10s4.5,10,10,10h0.2c5.5,0,10-4.5,10-10S402.8,71,397.2,71z"/>
	</g>
</g>
<g>
	<g>
		<path class="st0" d="M330.7,229.9c-0.5-1.6-1.3-3-2.5-4.1L298.4,196l42.4-42.4c1.9-1.9,2.9-4.4,2.9-7.1s-1.1-5.2-2.9-7.1
			l-28.3-28.3c-3.9-3.9-10.2-3.9-14.1,0L256,153.6l-42.4-42.4c-3.9-3.9-10.2-3.9-14.1,0l-28.3,28.3c-1.9,1.9-2.9,4.4-2.9,7.1
			s1.1,5.2,2.9,7.1l42.4,42.4l-29.8,29.8c-1.9,1.9-2.9,4.4-2.9,7.1V257l-9.7,9.7c-3.9,3.9-3.9,10.2,0,14.1c2,2,4.5,2.9,7.1,2.9
			s5.1-1,7.1-2.9l9.7-9.7h24.1c2.7,0,5.2-1.1,7.1-2.9l29.8-29.8l29.8,29.8c1.1,1.1,2.6,2,4.1,2.5l41,12.7c1,0.3,2,0.4,3,0.4
			c2.6,0,5.2-1,7.1-2.9c2.6-2.6,3.6-6.5,2.5-10L330.7,229.9z M305.5,132.4l14.1,14.1l-35.4,35.4l-14.1-14.1L305.5,132.4z M215,251.1
			h-14.1l0-14.1l26.8-26.8l14.1,14.1L215,251.1z M298.1,252.3l-35.1-35.1c0,0,0,0,0,0c0,0,0,0,0,0l-70.7-70.7l14.1-14.1l42.4,42.4
			c0,0,0,0,0,0c0,0,0,0,0,0l28.3,28.3c0,0,0,0,0,0c0,0,0,0,0,0l35.1,35.1l6.3,20.5L298.1,252.3z"/>
	</g>
</g>
</svg>
