
<?xml version="1.0" encoding="utf-8"?>
<!-- Generator: Adobe Illustrator 23.0.2, SVG Export Plug-In . SVG Version: 6.00 Build 0)  -->
<svg version="1.1" id="Capa_1" xmlns="http://www.w3.org/2000/svg" xmlns:xlink="http://www.w3.org/1999/xlink" x="0px" y="0px"
	 viewBox="0 0 512 512" style="enable-background:new 0 0 512 512;" xml:space="preserve">
<style type="text/css">
	.st0{fill:#FFFFFF;}
</style>
<g>
	<g>
		<path class="st0" d="M360,104h-80c-4.4,0-8,3.6-8,8v80c0,4.4,3.6,8,8,8h80c4.4,0,8-3.6,8-8v-80C368,107.6,364.4,104,360,104z
			 M288,184v-52.7l52.7,52.7H288z M352,172.7L299.3,120H352V172.7z"/>
	</g>
</g>
<g>
	<g>
		<path class="st0" d="M360,216h-80c-4.4,0-8,3.6-8,8v80c0,4.4,3.6,8,8,8h80c4.4,0,8-3.6,8-8v-80C368,219.6,364.4,216,360,216z
			 M288,296v-52.7l52.7,52.7H288z M352,284.7L299.3,232H352V284.7z"/>
	</g>
</g>
<g>
	<g>
		<rect x="272" y="328" class="st0" width="64" height="16"/>
	</g>
</g>
<g>
	<g>
		<rect x="352" y="328" class="st0" width="16" height="16"/>
	</g>
</g>
<g>
	<g>
		<rect x="272" y="360" class="st0" width="96" height="16"/>
	</g>
</g>
<g>
	<g>
		<rect x="272" y="392" class="st0" width="96" height="16"/>
	</g>
</g>
<g>
	<g>
		<rect x="136" y="184" class="st0" width="80" height="16"/>
	</g>
</g>
<g>
	<g>
		<rect x="136" y="248" class="st0" width="80" height="16"/>
	</g>
</g>
<g>
	<g>
		<rect x="136" y="312" class="st0" width="80" height="16"/>
	</g>
</g>
<g>
	<g>
		<path class="st0" d="M464,56c-4.4,0-8,3.6-8,8v32h-48V16c0-8.8-7.2-16-16-16H120c-8.8,0-16,7.2-16,16v80H56V64c0-4.4-3.6-8-8-8
			c-0.5,0-48,0.7-48,64v312c0,30.5,30.4,44.6,46.4,47.8c0.5,0.1,1.1,0.2,1.6,0.2h56v16c0,8.8,7.2,16,16,16h272c8.8,0,16-7.2,16-16
			v-16h56c0.5,0,1.1,0,1.6-0.2c16-3.2,46.4-17.3,46.4-47.8V120C512,56.7,464.5,56,464,56z M16,120c0-32.6,14.4-43.1,24-46.4v312.2
			c-8.8,2.7-16.9,7.1-24,13V120z M104,464H48.9c-4.8-1.1-32.9-8.9-32.9-32c0-25,32.2-31.9,33.6-32.2c3.7-0.8,6.4-4,6.4-7.8V112h48
			V464z M120,88h92.1L120,145.5V88z M232,94.4V152h-92.1L232,94.4z M120,168h112v48H120V168z M120,232h112v48H120V232z M120,296h112
			v48H120V296z M120,360h94.2L120,424.7V360z M232,367.2V432h-94.3L232,367.2z M392,496H120v-48h272V496z M392,432H248V88h144V432z
			 M392,72H120V16h272V72z M463.1,464H408V112h48v280c0,3.8,2.7,7.1,6.4,7.8c0.4,0.1,33.6,7,33.6,32.2
			C496,455.3,468.1,462.8,463.1,464z M496,398.8c-7.1-5.9-15.2-10.3-24-13V73.6c9.5,3.3,24,13.8,24,46.4V398.8z"/>
	</g>
</g>
<g>
	<g>
		<rect x="200" y="40" class="st0" width="64" height="16"/>
	</g>
</g>
<g>
	<g>
		<rect x="280" y="40" class="st0" width="16" height="16"/>
	</g>
</g>
<g>
	<g>
		<rect x="312" y="40" class="st0" width="16" height="16"/>
	</g>
</g>
</svg>
